<?xml version="1.0" encoding="utf-8"?>
<!-- Generator: Adobe Illustrator 23.0.3, SVG Export Plug-In . SVG Version: 6.00 Build 0)  -->
<svg version="1.1" id="Capa_1" xmlns="http://www.w3.org/2000/svg" xmlns:xlink="http://www.w3.org/1999/xlink" x="0px" y="0px"
	 viewBox="0 0 512 512" style="enable-background:new 0 0 512 512;" xml:space="preserve">
<style type="text/css">
	.st0{fill:#4798E8;}
</style>
<path class="st0" d="M121,455.3v18.2c0,4.1,3.4,7.5,7.5,7.5c4.1,0,7.5-3.4,7.5-7.5v-18.2c0-4.1-3.4-7.5-7.5-7.5
	C124.4,447.8,121,451.1,121,455.3z"/>
<path class="st0" d="M88.1,278.6c-18.1-25.1-52.8-3.1-41.4,21.9l30.9,70.8c0,0.1,0.1,0.1,0.1,0.2c6.1,13,14.1,19.7,22.9,28.4
	c3.1,3.1,3.9,9.9,4,17c-8.1,0.9-14.4,7.7-14.4,16v63.1c0,8.9,7.2,16.1,16.1,16.1h39.5c4.1,0,7.5-3.4,7.5-7.5s-3.4-7.5-7.5-7.5h-39.5
	c-0.6,0-1.1-0.5-1.1-1.1v-63.1c0-0.6,0.5-1.1,1.1-1.1h113.9c0.6,0,1.1,0.5,1.1,1.1v63.1c0,0.6-0.5,1.1-1.1,1.1h-39.5
	c-4.1,0-7.5,3.4-7.5,7.5s3.4,7.5,7.5,7.5h39.5c8.9,0,16.1-7.2,16.1-16.1v-63.1c0-8.1-6-14.8-13.7-15.9l0-6c0-17.8,22.5-18,22.5-49
	l0-14.2c0-4.1-3.4-7.5-7.5-7.5c0,0,0,0,0,0c-4.1,0-7.5,3.4-7.5,7.5l0,14.2c0,11.9-4.4,16.5-10.1,22.3c-5.5,5.7-12.4,12.9-12.4,26.7
	l0,5.8h-88c-0.2-9.8-1.3-20.5-8.5-27.5c-8.6-8.5-14.7-13.4-19.8-24l-30.9-70.7c0,0,0-0.1-0.1-0.1c-3.9-8.5,7.9-17.6,15.6-6.8
	c0,0.1,0.1,0.1,0.1,0.2l25,32.8c5.9,7.7,18.3,3.5,18.3-6.2c0-5.6,0-122.2,0-126.8c0-4.5,3.7-8.2,8.2-8.2c4.5,0,8.2,3.7,8.2,8.2
	c0,107.2,0,84.8,0,114.5c0,4.1,3.4,7.5,7.5,7.5s7.5-3.4,7.5-7.5c0-31.6,0.2-11.7,0.2-38.2c0-4.5,3.7-8.2,8.2-8.2
	c4.5,0,8.2,3.7,8.2,8.2v4.2v34c0,4.1,3.4,7.5,7.5,7.5s7.5-3.4,7.5-7.5v-34c0-4.5,3.7-8.2,8.2-8.2s8.2,3.7,8.2,8.2v3.2V302
	c0,4.1,3.4,7.5,7.5,7.5s7.5-3.4,7.5-7.5v-30.8c0-4.5,3.7-8.2,8.2-8.2s8.2,3.7,8.2,8.2c0,19.4-0.1,22.2,0,41.6c0,4.1,3.4,7.5,7.5,7.5
	h0c4.1,0,7.5-3.4,7.5-7.5c0-4.3,0-15.5,0-41.6c0-12.8-10.4-23.2-23.2-23.2c-5.2,0-10.1,1.8-14,4.7c-4.3-4.8-10.5-7.9-17.4-7.9
	c-5,0-9.6,1.6-13.4,4.3c-1.8-2.1-3.9-4-6.3-5.4c7.7-4.8,14.7-10.9,20.6-18c10.4-12.7,16.8-28.4,18.3-44.7h46.9v117.4
	c0,10.4,8.5,18.9,18.9,18.9h30v9.7c0,11,9,20,20,20h122c11,0,20-9,20-20v-34.4c0-11-9-20-20-20h-122c-11,0-20,9-20,20v9.7h-30
	c-2.2,0-3.9-1.8-3.9-3.9v-71.9h33.9v9.7c0,11,9,20,20,20h122c11,0,20-9,20-20v-34.4c0-11-9-20-20-20h-122c-11,0-20,9-20,20v9.7
	h-33.9v-75.9h33.9v9.7c0,11,9,20,20,20h122c11,0,20-9,20-20v-34.4c0-11-9-20-20-20h-122c-11,0-20,9-20,20v9.7h-33.9V48.6
	c0-2.2,1.8-3.9,3.9-3.9h30v9.7c0,11,9,20,20,20h122c11,0,20-9,20-20V20c0-11-9-20-20-20h-122c-11,0-20,9-20,20v9.7h-30
	c-10.4,0-18.9,8.5-18.9,18.9V166h-46.9c-3.8-42.1-39.2-75.1-82.3-75.1c-45.6,0-82.6,37.1-82.6,82.6c0,36.8,24.8,69.3,59.7,79.4V300
	L88.1,278.6z M320.5,292.6c0-2.7,2.3-5,5-5h122c2.7,0,5,2.3,5,5V327c0,2.7-2.3,5-5,5h-122c-2.7,0-5-2.3-5-5L320.5,292.6L320.5,292.6
	z M320.5,201.7c0-2.7,2.3-5,5-5h122c2.7,0,5,2.3,5,5v34.4c0,2.7-2.3,5-5,5h-122c-2.7,0-5-2.3-5-5L320.5,201.7L320.5,201.7z
	 M320.5,110.9c0-2.7,2.3-5,5-5h122c2.7,0,5,2.3,5,5v34.4c0,2.7-2.3,5-5,5h-122c-2.7,0-5-2.3-5-5L320.5,110.9L320.5,110.9z M320.5,20
	c0-2.7,2.3-5,5-5h122c2.7,0,5,2.3,5,5v34.4c0,2.7-2.3,5-5,5h-122c-2.7,0-5-2.3-5-5L320.5,20L320.5,20z M127.6,164.3
	C127.6,164.3,127.6,164.3,127.6,164.3L127.6,164.3c-1.7,0-3.4,0.2-5,0.6c-10.4,2.3-18.1,11.6-18.1,22.7v14.8
	c-8.6-6.9-13.9-17.5-13.9-28.8c0-20.3,16.5-36.9,36.9-36.9c20.3,0,36.9,16.5,36.9,36.9c0,11.1-5.1,21.5-13.5,28.4l0-14.4
	C150.8,174.7,140.4,164.3,127.6,164.3L127.6,164.3z M59.7,173.5c0-37.3,30.3-67.6,67.6-67.6c37.3,0,67.6,30.3,67.6,67.6
	c0,28.5-18.1,53.8-44.2,63.5l0-17.2c17.2-8.7,28.5-26.7,28.5-46.3c0-28.6-23.3-51.9-51.9-51.9s-51.9,23.3-51.9,51.9
	c0,19.8,11.4,37.8,28.9,46.5v17.1C78,227.6,59.7,202.2,59.7,173.5L59.7,173.5z"/>
</svg>
