<?xml version="1.0" encoding="utf-8"?>
<!-- Generator: Adobe Illustrator 23.0.3, SVG Export Plug-In . SVG Version: 6.00 Build 0)  -->
<svg version="1.1" id="Layer_1" xmlns="http://www.w3.org/2000/svg" xmlns:xlink="http://www.w3.org/1999/xlink" x="0px" y="0px"
	 viewBox="0 0 505 505" style="enable-background:new 0 0 505 505;" xml:space="preserve">
<style type="text/css">
	.st0{fill:#4798E8;}
</style>
<path class="st0" d="M255.2,220.2c0-4.4-3.6-8-8-8h-45c-4.4,0-8,3.6-8,8v44c0,4.4,3.6,8,8,8h45c4.4,0,8-3.6,8-8V220.2z M210.3,228.2
	h29v27h-29V228.2z"/>
<path class="st0" d="M330.1,220.2c0-4.4-3.6-8-8-8h-45c-4.4,0-8,3.6-8,8v44c0,4.4,3.6,8,8,8h45c4.4,0,8-3.6,8-8V220.2z M285.2,228.2
	h29v27h-29V228.2z"/>
<path class="st0" d="M406.1,220.2c0-4.4-3.6-8-8-8h-45c-4.4,0-8,3.6-8,8v44c0,4.4,3.6,8,8,8h45c4.4,0,8-3.6,8-8V220.2z M361.1,228.2
	h29v27h-29V228.2z"/>
<path class="st0" d="M255.2,366.1c0-4.4-3.6-8-8-8h-45c-4.4,0-8,3.6-8,8v44c0,4.4,3.6,8,8,8h45c4.4,0,8-3.6,8-8V366.1z M239.2,402.1
	h-29v-28h29V402.1z"/>
<path class="st0" d="M330.1,366.1c0-4.4-3.6-8-8-8h-45c-4.4,0-8,3.6-8,8v44c0,4.4,3.6,8,8,8h45c4.4,0,8-3.6,8-8V366.1z M314.2,402.1
	h-29v-28h29V402.1z"/>
<path class="st0" d="M406.1,366.1c0-4.4-3.6-8-8-8h-45c-4.4,0-8,3.6-8,8v44c0,4.4,3.6,8,8,8h45c4.4,0,8-3.6,8-8V366.1z M390.1,402.1
	h-29v-28h29V402.1z"/>
<path class="st0" d="M472.6,459h-27.5V176.4c-0.2-4.5-3.9-8.1-8.4-8.2H171.3V81.4h18.2c2.1,0,4.1-0.9,5.6-2.4
	c1.5-1.5,2.3-3.6,2.2-5.7v-30c0-2.1-0.8-4.1-2.2-5.6c-1.5-1.5-3.5-2.3-5.6-2.3h-23.6L119.6,1.5c-2.8-2.1-6.7-2-9.5,0.1l-45,33.8h-23
	c-2.1,0-4.1,0.8-5.5,2.3c-1.4,1.5-2.2,3.5-2.2,5.6v30c-0.1,2.1,0.7,4.1,2.1,5.7c1.4,1.5,3.4,2.4,5.5,2.4h17.3V459H31.8
	c-4.4,0-8.4,3.1-8.4,7.5v30c0.2,4.6,3.8,8.3,8.4,8.5h440.8c4.6-0.2,8.3-3.9,8.4-8.5v-30C481,462.1,477,459,472.6,459z M171.3,459
	V319.2h257.8V459H171.3z M75.4,77.3l39.4-29.4l40.5,29.5v50H75.4V77.3z M155.3,176.4v73.8H75.4V143.3h79.9V176.4z M75.4,266.2h79.9
	v102.9H75.4V266.2z M429.1,184.3v118.9H171.3V184.3H429.1z M50.4,51.4h17.4c1.7,0,3.4-0.6,4.8-1.7L115,17.9l43.5,31.9
	c1.4,1,3,1.6,4.7,1.6h18v14h-15.4l-46.2-33.9c-2.8-2.1-6.7-2-9.5,0.1l-45,33.8H50.4V51.4z M75.4,385.1h79.9V459H75.4V385.1z
	 M465,489H39.4v-14H465V489z"/>
</svg>
