<?xml version="1.0" encoding="utf-8"?>
<!-- Generator: Adobe Illustrator 23.0.3, SVG Export Plug-In . SVG Version: 6.00 Build 0)  -->
<svg version="1.1" id="Capa_1" xmlns="http://www.w3.org/2000/svg" xmlns:xlink="http://www.w3.org/1999/xlink" x="0px" y="0px"
	 viewBox="0 0 359.4 359.4" style="enable-background:new 0 0 359.4 359.4;" xml:space="preserve">
<style type="text/css">
	.st0{fill:#4798E8;}
</style>
<path class="st0" d="M354.7,171.2c0-26.7-14.7-50-36.5-62.2C304.9,46.9,245,0,173.3,0C97.5,0,34.8,52.5,26.6,119.8
	c-13.4,13-21.8,31.2-21.8,51.3c0,39.4,32,71.4,71.4,71.4c2.8,0,5-2.2,5-5V104.8c0-2.8-2.2-5-5-5c-3.4,0-6.7,0.3-9.9,0.7
	c15.9-38.9,57.9-66.7,107.1-66.7c49.3,0,91.3,27.9,107.2,66.9c-1.3,0.9-2.2,2.4-2.2,4.1v132.8c0,2.8,2.2,5,5,5
	c1.7,0,3.3-0.1,4.9-0.2c-11.1,34.4-41,61.8-79.2,72.5c-4.6-7.4-12.7-12.3-22.1-12.3h-27.4c-14.3,0-25.9,11.6-25.9,25.9v5.1
	c0,14.3,11.6,25.9,25.9,25.9H187c13.1,0,23.9-9.7,25.7-22.2c51.3-13.5,90.8-52.7,100.4-101.2C337.6,224.7,354.7,199.9,354.7,171.2z"
	/>
</svg>
