<?xml version="1.0" encoding="utf-8"?>
<!-- Generator: Adobe Illustrator 23.0.3, SVG Export Plug-In . SVG Version: 6.00 Build 0)  -->
<svg version="1.1" id="Layer_1" xmlns="http://www.w3.org/2000/svg" xmlns:xlink="http://www.w3.org/1999/xlink" x="0px" y="0px"
	 viewBox="0 0 512 512" style="enable-background:new 0 0 512 512;" xml:space="preserve">
<style type="text/css">
	.st0{fill:#4798E8;}
</style>
<path class="st0" d="M422.2,261.5V121.4c0-5.6-4.5-10.1-10.1-10.1h-89.6c-5.6,0-10.1,4.5-10.1,10.1V167H195.6V57.1
	c0-3.9-2.3-7.5-5.9-9.1c-3.6-1.6-7.8-1-10.8,1.5l-91.1,78.4c-2.2,1.9-3.5,4.7-3.5,7.6v20.1c0,5.6,4.5,10.1,10.1,10.1
	s10.1-4.5,10.1-10.1v-15.5l71-61.1v32.4L143.7,137c-4.3,3.5-5,9.8-1.5,14.2c2,2.5,4.9,3.7,7.8,3.7c2.2,0,4.5-0.7,6.3-2.2l19.1-15.4
	v20l-31.8,25.6c-4.3,3.5-5,9.8-1.5,14.2c2,2.5,4.9,3.7,7.8,3.7c2.2,0,4.5-0.7,6.3-2.2l19.1-15.4v20l-31.8,25.6
	c-4.3,3.5-5,9.8-1.5,14.2c2,2.5,4.9,3.7,7.8,3.7c2.2,0,4.5-0.7,6.3-2.2l19.1-15.4v20l-31.8,25.6c-4.3,3.5-5,9.8-1.5,14.2
	c2,2.5,4.9,3.7,7.8,3.7c2.2,0,4.5-0.7,6.3-2.2l19.1-15.4v20l-31.8,25.6c-4.3,3.5-5,9.8-1.5,14.2c2,2.5,4.9,3.7,7.8,3.7
	c2.2,0,4.5-0.7,6.3-2.2l19.1-15.4v20l-31.8,25.6c-4.3,3.5-5,9.8-1.5,14.2c2,2.5,4.9,3.7,7.8,3.7c2.2,0,4.5-0.7,6.3-2.2l19.1-15.4v20
	L143.7,412c-4.3,3.5-5,9.8-1.5,14.2c2,2.5,4.9,3.7,7.8,3.7c2.2,0,4.5-0.7,6.3-2.2l19.1-15.4v33.9h-71V235.8
	c0-5.6-4.5-10.1-10.1-10.1s-10.1,4.5-10.1,10.1v30.5C30.7,314.8,0,383.8,0,456.2c0,5.6,4.5,10.1,10.1,10.1h491.9
	c5.6,0,10.1-4.5,10.1-10.1C512,381,479.3,310.3,422.2,261.5z M84.4,294.5v151.7h-64C22.8,389.4,45.6,335.6,84.4,294.5z M332.6,446.2
	v-96.7c0-5.6-4.5-10.1-10.1-10.1s-10.1,4.5-10.1,10.1v96.6H195.6v-259h116.9v83.3c0,5.6,4.5,10.1,10.1,10.1s10.1-4.5,10.1-10.1
	V131.5h69.4V157h-23c-5.6,0-10.1,4.5-10.1,10.1c0,5.6,4.5,10.1,10.1,10.1h23v20.7h-23c-5.6,0-10.1,4.5-10.1,10.1
	c0,5.6,4.5,10.1,10.1,10.1h23v20.7h-23c-5.6,0-10.1,4.5-10.1,10.1s4.5,10.1,10.1,10.1h23v20.7h-23c-5.6,0-10.1,4.5-10.1,10.1
	c0,5.6,4.5,10.1,10.1,10.1h23v20.7h-23c-5.6,0-10.1,4.5-10.1,10.1s4.5,10.1,10.1,10.1h23v20.7h-23c-5.6,0-10.1,4.5-10.1,10.1
	s4.5,10.1,10.1,10.1h23v20.7h-23c-5.6,0-10.1,4.5-10.1,10.1s4.5,10.1,10.1,10.1h23v23.9L332.6,446.2L332.6,446.2z M422.2,446.2
	V288.8c42.2,41.8,67,97.7,69.5,157.3H422.2z"/>
<path class="st0" d="M232.5,206.4h-12c-5.6,0-10.1,4.5-10.1,10.1s4.5,10.1,10.1,10.1h12c5.6,0,10.1-4.5,10.1-10.1
	S238,206.4,232.5,206.4z"/>
<path class="st0" d="M287.1,206.4h-12c-5.6,0-10.1,4.5-10.1,10.1s4.5,10.1,10.1,10.1h12c5.6,0,10.1-4.5,10.1-10.1
	S292.6,206.4,287.1,206.4z"/>
<path class="st0" d="M232.5,239.8h-12c-5.6,0-10.1,4.5-10.1,10.1c0,5.6,4.5,10.1,10.1,10.1h12c5.6,0,10.1-4.5,10.1-10.1
	C242.5,244.3,238,239.8,232.5,239.8z"/>
<path class="st0" d="M287.1,239.8h-12c-5.6,0-10.1,4.5-10.1,10.1c0,5.6,4.5,10.1,10.1,10.1h12c5.6,0,10.1-4.5,10.1-10.1
	C297.1,244.3,292.6,239.8,287.1,239.8z"/>
<path class="st0" d="M232.5,273.2h-12c-5.6,0-10.1,4.5-10.1,10.1c0,5.6,4.5,10.1,10.1,10.1h12c5.6,0,10.1-4.5,10.1-10.1
	C242.5,277.7,238,273.2,232.5,273.2z"/>
<path class="st0" d="M287.1,273.2h-12c-5.6,0-10.1,4.5-10.1,10.1c0,5.6,4.5,10.1,10.1,10.1h12c5.6,0,10.1-4.5,10.1-10.1
	C297.1,277.7,292.6,273.2,287.1,273.2z"/>
<path class="st0" d="M232.5,306.5h-12c-5.6,0-10.1,4.5-10.1,10.1c0,5.6,4.5,10.1,10.1,10.1h12c5.6,0,10.1-4.5,10.1-10.1
	C242.5,311,238,306.5,232.5,306.5z"/>
<path class="st0" d="M287.1,306.5h-12c-5.6,0-10.1,4.5-10.1,10.1c0,5.6,4.5,10.1,10.1,10.1h12c5.6,0,10.1-4.5,10.1-10.1
	C297.1,311,292.6,306.5,287.1,306.5z"/>
<path class="st0" d="M232.5,339.9h-12c-5.6,0-10.1,4.5-10.1,10.1s4.5,10.1,10.1,10.1h12c5.6,0,10.1-4.5,10.1-10.1
	S238,339.9,232.5,339.9z"/>
<path class="st0" d="M287.1,339.9h-12c-5.6,0-10.1,4.5-10.1,10.1s4.5,10.1,10.1,10.1h12c5.6,0,10.1-4.5,10.1-10.1
	S292.6,339.9,287.1,339.9z"/>
<path class="st0" d="M232.5,373.3h-12c-5.6,0-10.1,4.5-10.1,10.1c0,5.6,4.5,10.1,10.1,10.1h12c5.6,0,10.1-4.5,10.1-10.1
	C242.5,377.8,238,373.3,232.5,373.3z"/>
<path class="st0" d="M287.1,373.3h-12c-5.6,0-10.1,4.5-10.1,10.1c0,5.6,4.5,10.1,10.1,10.1h12c5.6,0,10.1-4.5,10.1-10.1
	C297.1,377.8,292.6,373.3,287.1,373.3z"/>
<path class="st0" d="M232.5,406.7h-12c-5.6,0-10.1,4.5-10.1,10.1s4.5,10.1,10.1,10.1h12c5.6,0,10.1-4.5,10.1-10.1
	S238,406.7,232.5,406.7z"/>
<path class="st0" d="M287.1,406.7h-12c-5.6,0-10.1,4.5-10.1,10.1s4.5,10.1,10.1,10.1h12c5.6,0,10.1-4.5,10.1-10.1
	S292.6,406.7,287.1,406.7z"/>
<path class="st0" d="M91.4,205.9l0.2,0.1c1,0.3,1.9,0.4,2.9,0.4c4.3,0,8.3-2.8,9.6-7.2c1.6-5.3-1.4-10.9-6.7-12.5l-0.2-0.1
	c-5.3-1.6-10.9,1.4-12.5,6.7S86.1,204.3,91.4,205.9z"/>
<path class="st0" d="M324.4,299l-0.2-0.1c-5.3-1.6-10.9,1.4-12.5,6.7c-1.6,5.3,1.4,10.9,6.7,12.5l0.2,0.1c1,0.3,1.9,0.4,2.9,0.4
	c4.3,0,8.3-2.8,9.6-7.2C332.7,306.2,329.7,300.6,324.4,299z"/>
</svg>
