<?xml version="1.0" encoding="utf-8"?>
<!-- Generator: Adobe Illustrator 23.0.3, SVG Export Plug-In . SVG Version: 6.00 Build 0)  -->
<svg version="1.1" id="Layer_1" xmlns="http://www.w3.org/2000/svg" xmlns:xlink="http://www.w3.org/1999/xlink" x="0px" y="0px"
	 viewBox="0 0 421 421" style="enable-background:new 0 0 421 421;" xml:space="preserve">
<style type="text/css">
	.st0{fill:#4798E8;}
</style>
<path class="st0" d="M206,73.6c-13.5,0-24.6-11-24.6-24.6V24.5c0-13.5,11-24.6,24.6-24.6h17.5c3.9,0,7,3.1,7,7V49
	C230.6,62.6,219.6,73.6,206,73.6z M206,13.9c-5.8,0-10.5,4.7-10.5,10.5V49c0,5.8,4.7,10.5,10.5,10.5c5.8,0,10.5-4.7,10.5-10.5V13.9
	H206z"/>
<path class="st0" d="M188.5,24.5h35.1v14h-35.1V24.5z"/>
<path class="st0" d="M237.6,210.4h-63.2c-3.7,0-6.8-2.9-7-6.6l-7-112.3c-0.1-1.9,0.6-3.8,1.9-5.2c1.3-1.4,3.2-2.2,5.1-2.2h77.2
	c1.9,0,3.8,0.8,5.1,2.2c1.3,1.4,2,3.3,1.9,5.2l-7,112.3C244.4,207.6,241.3,210.4,237.6,210.4z M181.1,196.4h50l6.1-98.3h-62.3
	L181.1,196.4z"/>
<path class="st0" d="M272.7,245.5c-0.1,0-0.2,0-0.2,0c-3.5-0.1-6.4-2.8-6.7-6.2l-6.8-61.3l-23.1-30.9l11.2-8.4l24.3,32.4
	c0.8,1,1.2,2.2,1.4,3.4l1.7,15.5l5-27.4l-40.8-67.9l12-7.2l42.1,70.2c0.9,1.5,1.2,3.2,0.9,4.9l-14,77.2
	C279,243.1,276.1,245.5,272.7,245.5z"/>
<path class="st0" d="M97.3,161.3c-1.3,0-2.6-0.4-3.7-1c-1.9-1.2-3.1-3.2-3.3-5.4l-7-84.2c-0.3-3.4,1.9-6.5,5.1-7.4
	c3.3-0.9,6.7,0.7,8.2,3.7l21.3,44.1L164,85l6.9,12.2l-52.6,29.8c-1.7,1-3.7,1.2-5.6,0.6c-1.9-0.6-3.4-1.9-4.2-3.7l-8.1-16.8l3.1,37
	l61.4-24.6l5.2,13l-70.2,28.1C99,161.2,98.1,161.3,97.3,161.3z"/>
<path class="st0" d="M244.6,245.5h-14v-35.1h-49.1v35.1h-14v-42.1c0-3.9,3.1-7,7-7h63.2c3.9,0,7,3.1,7,7V245.5z"/>
<path class="st0" d="M266.9,242.4l11.7-7.8l14,21.1l-11.7,7.8L266.9,242.4z"/>
<path class="st0" d="M60.5,69.9l3.4-13.6l28.1,7l-3.4,13.6L60.5,69.9z"/>
<path class="st0" d="M413.1,392.9H6c-2.1,0-4.1-1-5.5-2.6c-1.3-1.7-1.8-3.8-1.4-5.9L34.3,223c0.7-3.2,3.6-5.5,6.9-5.5H378
	c3.3,0,6.2,2.3,6.9,5.5l35.1,161.4c0.4,2.1-0.1,4.2-1.4,5.9C417.2,392,415.2,392.9,413.1,392.9z M14.7,378.9h389.6l-32-147.4H46.8
	L14.7,378.9z"/>
<path class="st0" d="M328.3,226l13.7-3l35.1,161.4l-13.7,3L328.3,226z"/>
<path class="st0" d="M413.1,421H6c-3.9,0-7-3.1-7-7v-28.1c0-3.9,3.1-7,7-7h407.1c3.9,0,7,3.1,7,7V414C420.1,417.9,417,421,413.1,421
	z M13,407h393v-14H13V407z"/>
<path class="st0" d="M188.5,273.6h14v35.1h-14V273.6z"/>
<path class="st0" d="M216.6,245.5h14v35.1h-14V245.5z"/>
<path class="st0" d="M167.4,259.6h14v14h-14V259.6z"/>
<path class="st0" d="M230.6,280.6h14v21.1h-14V280.6z"/>
<path class="st0" d="M202.5,308.7h14v21.1h-14V308.7z"/>
<path class="st0" d="M167.4,301.7h14v21.1h-14V301.7z"/>
<path class="st0" d="M167.4,322.7h84.2v14h-84.2V322.7z"/>
<path class="st0" d="M195.5,238.5h14v14h-14V238.5z"/>
</svg>
