<?xml version="1.0" encoding="utf-8"?>
<!-- Generator: Adobe Illustrator 23.0.3, SVG Export Plug-In . SVG Version: 6.00 Build 0)  -->
<svg version="1.1" id="Capa_1" xmlns="http://www.w3.org/2000/svg" xmlns:xlink="http://www.w3.org/1999/xlink" x="0px" y="0px"
	 viewBox="0 0 512 512" style="enable-background:new 0 0 512 512;" xml:space="preserve">
<style type="text/css">
	.st0{fill:#4798E8;}
</style>
<g>
	<g>
		<path class="st0" d="M423,424c-5.5,0-10,4.5-10,10v14l-20.6,50.2c-2.1,5.1,0.3,11,5.5,13c1.2,0.5,2.5,0.8,3.8,0.8
			c3.9,0,7.7-2.3,9.3-6.2l21.4-52c0.5-1.2,0.8-2.5,0.8-3.8v-16C433,428.5,428.5,424,423,424z"/>
	</g>
</g>
<g>
	<g>
		<path class="st0" d="M430.1,387.9c-1.9-1.9-4.4-2.9-7.1-2.9s-5.2,1.1-7.1,2.9c-1.9,1.9-2.9,4.4-2.9,7.1s1.1,5.2,2.9,7.1
			c1.9,1.9,4.4,2.9,7.1,2.9s5.2-1.1,7.1-2.9c1.9-1.9,2.9-4.4,2.9-7.1S431.9,389.8,430.1,387.9z"/>
	</g>
</g>
<g>
	<g>
		<path class="st0" d="M282.8,106.8c-30.4-30.4-79.9-30.4-110.3,0c-22.4,22.4-29,55.7-16.9,84.9c1.6,3.9,5.3,6.2,9.2,6.2
			c1.3,0,2.6-0.2,3.8-0.8c5.1-2.1,7.5-8,5.4-13.1c-9-21.7-4-46.5,12.6-63.2c22.6-22.6,59.4-22.6,82,0c16,16,21.2,40.1,13.3,61.3
			c-1.9,5.2,0.7,10.9,5.9,12.9c5.2,1.9,10.9-0.7,12.9-5.9C311.3,160.7,304.3,128.4,282.8,106.8z"/>
	</g>
</g>
<g>
	<g>
		<path class="st0" d="M314.1,233.9c-3.9-3.9-10.2-3.9-14.1,0l-0.2,0.2c-3.9,3.9-3.9,10.2,0,14.1c2,2,4.5,2.9,7.1,2.9s5.1-1,7.1-2.9
			l0.2-0.2C318,244.1,318,237.8,314.1,233.9z"/>
	</g>
</g>
<g>
	<g>
		<path class="st0" d="M502,0H10C4.5,0,0,4.5,0,10v320c0,5.5,4.5,10,10,10h86.4c-3.5,6-5.4,12.9-5.4,20c0,10.7,4.2,20.7,11.7,28.3
			l120.8,120.8c2,2,4.5,2.9,7.1,2.9s5.1-1,7.1-2.9c3.9-3.9,3.9-10.2,0-14.1l-27.8-27.8c0.1-0.5,0.1-0.9,0.1-1.4V352.5h11
			c5.5,0,10-4.5,10-10s-4.5-10-10-10h-11v-38.1h11c5.5,0,10-4.5,10-10s-4.5-10-10-10h-11v-49.9h11c5.5,0,10-4.5,10-10s-4.5-10-10-10
			h-11v-26c0-9.9,8.1-18,18-18s18,8.1,18,18v163c0,0.5,0,0.9,0.1,1.4c0.2,5.3,4.6,9.6,10,9.6c5.5,0,10-4.5,10-10v-30.2
			c0-9.8,8-17.8,17.8-17.8s17.8,8,17.8,17.8v30.2c0,5.5,4.5,10,10,10s10-4.5,10-10v-20.6c0-9.8,8-17.8,17.8-17.8
			c9.8,0,17.8,8,17.8,17.8v20.6c0,5.5,4.5,10,10,10s10-4.5,10-10v-6.7c0-9.8,8-17.8,17.8-17.8s17.8,8,17.8,17.8V360
			c0,5.5,4.5,10,10,10s10-4.5,10-10v-20h69c5.5,0,10-4.5,10-10V10C512,4.5,507.5,0,502,0z M20,130h20v20H20V130z M190,447.3
			L162.8,420l7-7c3.9-3.9,3.9-10.2,0-14.1s-10.2-3.9-14.1,0l-7,7l-31.7-31.7c-3.8-3.8-5.9-8.8-5.9-14.1s2.1-10.4,5.9-14.1
			c7.8-7.8,20.5-7.8,28.3,0l44.9,44.9V447.3z M190,362.4L167.6,340H190V362.4z M492,320h-62.5c-6-13-19.1-22-34.3-22
			c-8.1,0-15.7,2.6-21.8,7c-6.2-12.4-19-20.9-33.8-20.9c-8.9,0-17.1,3.1-23.5,8.2c-6.7-10.7-18.6-17.9-32.1-17.9
			c-6.5,0-12.6,1.6-17.9,4.5V178.5c0-21-17-38-38-38s-38,17-38,38V320H20V170h30c5.5,0,10-4.5,10-10v-40c0-5.5-4.5-10-10-10H20V20
			h472V320z"/>
	</g>
</g>
<g>
	<g>
		<path class="st0" d="M458,54h-56c-5.5,0-10,4.5-10,10v56c0,5.5,4.5,10,10,10h56c5.5,0,10-4.5,10-10V64C468,58.5,463.5,54,458,54z
			 M448,110h-36V74h36V110z"/>
	</g>
</g>
<g>
	<g>
		<path class="st0" d="M458,226h-40c-5.5,0-10,4.5-10,10v40c0,5.5,4.5,10,10,10h40c5.5,0,10-4.5,10-10v-40
			C468,230.5,463.5,226,458,226z M448,266h-20v-20h20V266z"/>
	</g>
</g>
<g>
	<g>
		<path class="st0" d="M419.4,152h-40c-5.5,0-10,4.5-10,10v40c0,5.5,4.5,10,10,10h40c5.5,0,10-4.5,10-10v-40
			C429.4,156.5,424.9,152,419.4,152z M409.4,192h-20v-20h20V192z"/>
	</g>
</g>
<g>
	<g>
		<path class="st0" d="M84,34H44c-5.5,0-10,4.5-10,10v40c0,5.5,4.5,10,10,10h40c5.5,0,10-4.5,10-10V44C94,38.5,89.5,34,84,34z
			 M74,74H54V54h20V74z"/>
	</g>
</g>
<g>
	<g>
		<path class="st0" d="M313.9,75.7c-23-23-53.7-35.7-86.3-35.7c-32.6,0-63.2,12.7-86.3,35.7s-35.7,53.7-35.7,86.3
			c0,17.7,3.8,34.9,10.9,50.6c-1.8-1.5-4.1-2.5-6.6-2.5h-56c-5.5,0-10,4.5-10,10v56c0,5.5,4.5,10,10,10h56c5.5,0,10-4.5,10-10v-56
			c0-0.2,0-0.4,0-0.7c5.6,10.5,12.8,20.2,21.4,28.9c2,2,4.5,2.9,7.1,2.9s5.1-1,7.1-2.9c3.9-3.9,3.9-10.2,0-14.1
			c-19.3-19.3-29.9-44.9-29.9-72.1s10.6-52.9,29.9-72.1C174.7,70.6,200.4,60,227.6,60c27.2,0,52.9,10.6,72.1,29.9
			c31.3,31.3,38.9,78.8,18.9,118.2c-2.5,4.9-0.5,10.9,4.4,13.4c4.9,2.5,10.9,0.5,13.4-4.4C360.4,170,351.3,113.1,313.9,75.7z
			 M99.9,266.1h-36v-36h36V266.1z"/>
	</g>
</g>
<g>
	<g>
		<path class="st0" d="M311.8,369c-39.4,0-71.5,32.1-71.5,71.5s32.1,71.5,71.5,71.5s71.5-32.1,71.5-71.5S351.2,369,311.8,369z
			 M311.8,492c-28.4,0-51.5-23.1-51.5-51.5s23.1-51.5,51.5-51.5c28.4,0,51.5,23.1,51.5,51.5S340.1,492,311.8,492z"/>
	</g>
</g>
<g>
	<g>
		<path class="st0" d="M335.7,430.5c-5.5,0-10,4.5-10,10c0,7.7-6.2,13.9-13.9,13.9s-13.9-6.2-13.9-13.9s6.2-13.9,13.9-13.9
			c5.5,0,10-4.5,10-10s-4.5-10-10-10c-18.7,0-33.9,15.2-33.9,33.9c0,18.7,15.2,33.9,33.9,33.9c18.7,0,33.9-15.2,33.9-33.9
			C345.7,435,341.2,430.5,335.7,430.5z"/>
	</g>
</g>
</svg>
