<?xml version="1.0" encoding="utf-8"?>
<!-- Generator: Adobe Illustrator 23.0.3, SVG Export Plug-In . SVG Version: 6.00 Build 0)  -->
<svg version="1.1" id="Capa_1" xmlns="http://www.w3.org/2000/svg" xmlns:xlink="http://www.w3.org/1999/xlink" x="0px" y="0px"
	 viewBox="0 0 480 480" style="enable-background:new 0 0 480 480;" xml:space="preserve">
<style type="text/css">
	.st0{fill:#4798E8;}
</style>
<g>
	<g>
		<path class="st0" d="M133.3,264c-22.1,0-40,17.9-40,40s17.9,40,40,40c22.1,0,40-17.9,40-40C173.3,281.9,155.4,264,133.3,264z
			 M133.3,328c-13.3,0-24-10.7-24-24s10.7-24,24-24s24,10.7,24,24S146.5,328,133.3,328z"/>
	</g>
</g>
<g>
	<g>
		<path class="st0" d="M259.1,359L220,303.1c-7.2-10.2-21.3-12.7-31.5-5.5c-10,7-12.6,20.8-5.8,31l15.6,23.4H68.2l15.6-23.4
			c6.9-10.4,4.1-24.4-6.3-31.3c-10.2-6.8-23.9-4.2-31,5.8L7.4,359c-8.2,11.8-5.4,28,6.4,36.3c4.4,3.1,9.6,4.7,14.9,4.7h56.5v72
			c0,4.4,3.6,8,8,8h80c4.4,0,8-3.6,8-8v-72h56.5c14.4,0,26.1-11.7,26.1-26.1C263.9,368.6,262.2,363.4,259.1,359z M243.6,382.2
			c-1.7,1.2-3.7,1.8-5.8,1.8h-64.5c-4.4,0-8,3.6-8,8v72h-64v-72c0-4.4-3.6-8-8-8H28.8c-5.6,0-10.1-4.5-10.1-10.1
			c0-2.1,0.6-4.1,1.8-5.8l39.2-55.9c2.1-3,6.2-3.8,9.2-1.7s3.8,6.1,1.7,9.2l-23.9,35.9c-2.5,3.7-1.5,8.6,2.2,11.1
			c1.3,0.9,2.9,1.3,4.4,1.3h160c4.4,0,8-3.6,8-8c0-1.6-0.5-3.1-1.3-4.4L196,319.7c-2.1-3-1.3-7.1,1.7-9.2s7.1-1.3,9.2,1.7l39.2,55.9
			C249.3,372.7,248.2,379,243.6,382.2z"/>
	</g>
</g>
<g>
	<g>
		<path class="st0" d="M149.3,120h-24c-13.3,0-24,10.7-24,24h16c0-4.4,3.6-8,8-8h24c4.4,0,8,3.6,8,8s-3.6,8-8,8
			c-13.3,0-24,10.7-24,24h16c0-4.4,3.6-8,8-8c13.3,0,24-10.7,24-24S162.5,120,149.3,120z"/>
	</g>
</g>
<g>
	<g>
		<rect x="125.3" y="184" class="st0" width="16" height="16"/>
	</g>
</g>
<g>
	<g>
		<path class="st0" d="M133.3,88c-48.5,0-88,32.3-88,72c0,32.4,26.1,60.4,63.9,69.2l17.7,23.6c2.7,3.5,7.7,4.3,11.2,1.6
			c0.6-0.5,1.1-1,1.6-1.6l17.7-23.6c37.8-8.7,63.9-36.8,63.9-69.2C221.3,120.3,181.8,88,133.3,88z M151.2,214.2
			c-1.9,0.4-3.6,1.5-4.8,3l-13.1,17.5l-13.1-17.5c-1.2-1.6-2.9-2.6-4.8-3c-31.9-6.4-54.1-28.7-54.1-54.2c0-30.9,32.3-56,72-56
			s72,25.1,72,56C205.3,185.5,183,207.8,151.2,214.2z"/>
	</g>
</g>
<g>
	<g>
		<path class="st0" d="M365.3,160c-22.1,0-40,17.9-40,40c0,22.1,17.9,40,40,40s40-17.9,40-40S387.4,160,365.3,160z M365.3,224
			c-13.3,0-24-10.7-24-24s10.7-24,24-24s24,10.7,24,24S378.5,224,365.3,224z"/>
	</g>
</g>
<g>
	<g>
		<path class="st0" d="M413.3,0h-96c-22.1,0-40,17.9-40,40v48c0,22.1,17.9,40,40,40H338l21.7,21.7c3.1,3.1,8.2,3.1,11.3,0l21.7-21.7
			h20.7c22.1,0,40-17.9,40-40V40C453.3,17.9,435.4,0,413.3,0z M437.3,88c0,13.3-10.7,24-24,24h-24c-2.1,0-4.2,0.8-5.7,2.3
			l-18.3,18.3l-18.3-18.3c-1.5-1.5-3.5-2.3-5.7-2.3h-24c-13.3,0-24-10.7-24-24V40c0-13.3,10.7-24,24-24h96c13.3,0,24,10.7,24,24V88z
			"/>
	</g>
</g>
<g>
	<g>
		<path class="st0" d="M457.3,216.3c-13.1-2.2-25.5,6.6-27.7,19.7c-0.2,1.3-0.3,2.7-0.3,4v8h-128v-39.1c0.1-11.9-8.3-22.3-20-24.5
			c-13.1-2.2-25.5,6.6-27.7,19.7c-0.2,1.3-0.3,2.7-0.3,4v40c0,26.5,21.5,48,48,48h16v39.3l-19,107.7c-2.9,17.2,8.6,33.5,25.8,36.4
			s33.5-8.6,36.4-25.8l4.8-29l4.8,29c2.9,17.2,19.3,28.7,36.4,25.7c17.2-2.9,28.7-19.3,25.7-36.4l-19-107.7V296h16
			c26.5,0,48-21.5,48-48v-7.1C477.4,228.9,469,218.6,457.3,216.3z M461.3,248c0,17.7-14.3,32-32,32h-24c-4.4,0-8,3.6-8,8v48
			c0,0.5,0,0.9,0.1,1.4l19.1,108.4c1.5,8.5-4.1,16.5-12.6,18c-8.5,1.5-16.5-4.1-18-12.6c0-0.1,0-0.1,0-0.2l-12.7-76.3
			c-0.7-4.4-4.9-7.3-9.2-6.6c-3.4,0.6-6,3.2-6.6,6.6L344.7,451c-1.4,8.5-9.3,14.2-17.8,12.9c-8.5-1.4-14.2-9.3-12.9-17.8
			c0-0.1,0-0.2,0.1-0.3l19.1-108.4c0.1-0.5,0.1-0.9,0.1-1.4v-48c0-4.4-3.6-8-8-8h-24c-17.7,0-32-14.3-32-32v-40c0-4.4,3.6-8,8-8
			c0.5,0,0.9,0,1.4,0.1c4,1,6.8,4.6,6.6,8.7V248c0,8.8,7.2,16,16,16h128c8.8,0,16-7.2,16-16v-8c0-2.4,1-4.6,2.8-6.1
			c1.8-1.6,4.2-2.2,6.6-1.8c4,1,6.8,4.6,6.6,8.7V248z"/>
	</g>
</g>
<g>
	<g>
		<path class="st0" d="M403.1,34.3c-3.1-3.2-8.1-3.3-11.3-0.2c-0.1,0.1-0.1,0.1-0.2,0.2l-42.3,42.3l-10.3-10.3
			c-3.2-3.1-8.2-3-11.3,0.2c-3,3.1-3,8,0,11.1l16,16c3.1,3.1,8.2,3.1,11.3,0l48-48C406.1,42.6,406.2,37.5,403.1,34.3z"/>
	</g>
</g>
</svg>
