<?xml version="1.0" encoding="utf-8"?>
<!-- Generator: Adobe Illustrator 23.0.3, SVG Export Plug-In . SVG Version: 6.00 Build 0)  -->
<svg version="1.1" id="Layer_1" xmlns="http://www.w3.org/2000/svg" xmlns:xlink="http://www.w3.org/1999/xlink" x="0px" y="0px"
	 viewBox="0 0 512 512" style="enable-background:new 0 0 512 512;" xml:space="preserve">
<style type="text/css">
	.st0{fill:none;}
	.st1{fill:#4798E8;}
	.st2{fill:#FFFFFF;}
</style>
<path class="st0" d="M277.2,72.6c0,11.7-9.5,21.3-21.3,21.3s-21.3-9.5-21.3-21.3s9.5-21.3,21.3-21.3
	C267.7,51.4,277.2,60.9,277.2,72.6z"/>
<path class="st1" d="M256,97.9c-13.9,0-25.3-11.3-25.3-25.3S242,47.4,256,47.4c13.9,0,25.3,11.3,25.3,25.3S269.9,97.9,256,97.9
	L256,97.9z M256,55.4c-9.5,0-17.3,7.7-17.3,17.3s7.7,17.3,17.3,17.3c9.5,0,17.3-7.7,17.3-17.3S265.5,55.4,256,55.4L256,55.4z"/>
<path class="st0" d="M277.2,438.7c0,11.7-9.5,21.3-21.3,21.3s-21.3-9.5-21.3-21.3s9.5-21.3,21.3-21.3
	C267.7,417.5,277.2,427,277.2,438.7z"/>
<path class="st1" d="M256,464c-13.9,0-25.3-11.3-25.3-25.3s11.3-25.3,25.3-25.3c13.9,0,25.3,11.3,25.3,25.3S269.9,464,256,464
	L256,464z M256,421.5c-9.5,0-17.3,7.7-17.3,17.3S246.5,456,256,456c9.5,0,17.3-7.7,17.3-17.3S265.5,421.5,256,421.5L256,421.5z"/>
<path class="st0" d="M439,277c-11.7,0-21.3-9.5-21.3-21.3s9.5-21.3,21.3-21.3c11.7,0,21.3,9.5,21.3,21.3
	C460.3,267.4,450.8,277,439,277z"/>
<path class="st1" d="M439,281c-13.9,0-25.3-11.3-25.3-25.3s11.3-25.3,25.3-25.3s25.3,11.3,25.3,25.3S453,281,439,281z M439,238.4
	c-9.5,0-17.3,7.7-17.3,17.3S429.5,273,439,273c9.5,0,17.3-7.7,17.3-17.3S448.5,238.4,439,238.4L439,238.4z"/>
<path class="st0" d="M72.9,277c-11.7,0-21.3-9.5-21.3-21.3s9.5-21.3,21.3-21.3s21.3,9.5,21.3,21.3C94.2,267.4,84.7,277,72.9,277z"/>
<g>
	<path class="st1" d="M72.9,281c-13.9,0-25.3-11.3-25.3-25.3s11.3-25.3,25.3-25.3s25.3,11.3,25.3,25.3S86.9,281,72.9,281z
		 M72.9,238.4c-9.5,0-17.3,7.7-17.3,17.3S63.4,273,72.9,273c9.5,0,17.3-7.7,17.3-17.3S82.4,238.4,72.9,238.4L72.9,238.4z"/>
	<path class="st1" d="M252,93.9h8v323.6h-8L252,93.9z"/>
	<path class="st1" d="M94.2,251.7h323.6v8H94.2L94.2,251.7z"/>
	<path class="st1" d="M130.1,375.8l245.9-245.9l5.7,5.7L135.8,381.5L130.1,375.8z"/>
	<path class="st1" d="M138.7,144.1l5.7-5.7l228.8,228.8l-5.7,5.7L138.7,144.1z"/>
</g>
<path class="st0" d="M272.2,158.3h-32.5V353h32.5c53.8,0,97.4-43.6,97.4-97.4S326,158.3,272.2,158.3z"/>
<path class="st0" d="M272.2,357h-32.5c-2.2,0-4-1.8-4-4V158.3c0-2.2,1.8-4,4-4h32.5c55.9,0,101.4,45.5,101.4,101.4
	S328.1,357,272.2,357L272.2,357z M243.7,349h28.5c51.5,0,93.4-41.9,93.4-93.4c0-51.5-41.9-93.4-93.4-93.4h-28.5V349z"/>
<path class="st2" d="M142.4,255.7c0,53.8,43.6,97.4,97.4,97.4c53.8,0,97.4-43.6,97.4-97.4s-43.6-97.4-97.4-97.4
	C186,158.3,142.4,201.9,142.4,255.7L142.4,255.7z"/>
<path class="st2" d="M158.4,255.7c0-51.1,39.4-92.9,89.4-97c-2.6-0.2-5.3-0.4-8-0.4c-53.8,0-97.4,43.6-97.4,97.4S186,353,239.7,353
	c2.7,0,5.4-0.2,8-0.4C197.7,348.6,158.4,306.8,158.4,255.7L158.4,255.7z"/>
<path class="st1" d="M239.7,357c-55.9,0-101.4-45.5-101.4-101.4s45.5-101.4,101.4-101.4c55.9,0,101.4,45.5,101.4,101.4
	S295.6,357,239.7,357L239.7,357z M239.7,162.3c-51.5,0-93.4,41.9-93.4,93.4c0,51.5,41.9,93.4,93.4,93.4c51.5,0,93.4-41.9,93.4-93.4
	C333.1,204.2,291.2,162.3,239.7,162.3L239.7,162.3z"/>
<path class="st0" d="M271.6,230.6c0,17.6-14.3,31.9-31.9,31.9c-17.6,0-31.9-14.3-31.9-31.9s14.3-31.9,31.9-31.9
	C257.3,198.7,271.6,213,271.6,230.6z"/>
<path class="st1" d="M239.7,266.5c-19.8,0-35.9-16.1-35.9-35.9c0-19.8,16.1-35.9,35.9-35.9c19.8,0,35.9,16.1,35.9,35.9
	C275.6,250.4,259.5,266.5,239.7,266.5z M239.7,202.7c-15.4,0-27.9,12.5-27.9,27.9c0,15.4,12.5,27.9,27.9,27.9
	c15.4,0,27.9-12.5,27.9-27.9C267.6,215.2,255.1,202.7,239.7,202.7z"/>
<path class="st0" d="M287.7,307.6c-1.6-25.2-22.5-45-48-45c-25.5,0-46.4,19.9-48,45H287.7z"/>
<path class="st1" d="M287.7,311.6h-96c-1.1,0-2.2-0.5-2.9-1.3s-1.1-1.9-1.1-3c1.8-27.4,24.6-48.8,52-48.8c27.4,0,50.2,21.4,52,48.8
	c0.1,1.1-0.3,2.2-1.1,3C289.9,311.1,288.8,311.6,287.7,311.6z M196.2,303.6h87.1c-3.4-21.1-21.8-37-43.5-37
	C218,266.5,199.6,282.5,196.2,303.6L196.2,303.6z"/>
<path class="st0" d="M25.2,423.7c0,34.8,28.3,63.1,63.1,63.1c34.8,0,63.1-28.3,63.1-63.1c0-34.8-28.2-63.1-63.1-63.1
	C53.4,360.6,25.2,388.9,25.2,423.7z"/>
<path class="st0" d="M41.2,423.7c0-32.1,24-58.6,55.1-62.5c-2.6-0.3-5.3-0.6-8-0.6c-34.9,0-63.1,28.3-63.1,63.1
	c0,34.8,28.3,63.1,63.1,63.1c2.7,0,5.4-0.2,8-0.6C65.2,482.3,41.2,455.8,41.2,423.7z"/>
<path class="st1" d="M88.3,490.8c-37,0-67.1-30.1-67.1-67.1c0-37,30.1-67.1,67.1-67.1c37,0,67.1,30.1,67.1,67.1
	C155.4,460.7,125.3,490.8,88.3,490.8z M88.3,364.6c-32.6,0-59.1,26.5-59.1,59.1c0,32.6,26.5,59.1,59.1,59.1
	c32.6,0,59.1-26.5,59.1-59.1C147.4,391.1,120.9,364.6,88.3,364.6z"/>
<path class="st0" d="M109,407.5c0,11.4-9.3,20.7-20.7,20.7c-11.4,0-20.7-9.3-20.7-20.7s9.3-20.7,20.7-20.7
	C99.7,386.8,109,396,109,407.5z"/>
<path class="st1" d="M88.3,432.1c-13.6,0-24.7-11.1-24.7-24.7s11.1-24.7,24.7-24.7c13.6,0,24.7,11.1,24.7,24.7
	S101.9,432.1,88.3,432.1z M88.3,390.8c-9.2,0-16.7,7.5-16.7,16.7c0,9.2,7.5,16.7,16.7,16.7c9.2,0,16.7-7.5,16.7-16.7
	C105,398.3,97.5,390.8,88.3,390.8z"/>
<path class="st0" d="M119.4,457.3c-1.1-16.3-14.6-29.2-31.1-29.2c-16.6,0-30.1,12.9-31.1,29.2H119.4z"/>
<path class="st1" d="M119.4,461.3H57.2c-1.1,0-2.2-0.5-2.9-1.3c-0.8-0.8-1.1-1.9-1.1-3c1.2-18.5,16.6-32.9,35.1-32.9
	s33.9,14.5,35.1,32.9c0.1,1.1-0.3,2.2-1.1,3C121.6,460.9,120.5,461.3,119.4,461.3z M61.8,453.3h53c-2.8-12.2-13.7-21.2-26.5-21.2
	S64.5,441.2,61.8,453.3z"/>
<path class="st0" d="M360.6,88.3c0,34.8,28.2,63.1,63.1,63.1c34.8,0,63.1-28.3,63.1-63.1c0-34.8-28.3-63.1-63.1-63.1
	C388.8,25.2,360.6,53.4,360.6,88.3z"/>
<path class="st0" d="M376.6,88.3c0-32.1,24-58.6,55.1-62.5c-2.6-0.3-5.3-0.6-8-0.6c-34.9,0-63.1,28.3-63.1,63.1s28.2,63.1,63.1,63.1
	c2.7,0,5.4-0.2,8-0.6C400.6,146.9,376.6,120.4,376.6,88.3z"/>
<path class="st1" d="M423.7,155.4c-37,0-67.1-30.1-67.1-67.1c0-37,30.1-67.1,67.1-67.1c37,0,67.1,30.1,67.1,67.1
	S460.7,155.4,423.7,155.4z M423.7,29.2c-32.6,0-59.1,26.5-59.1,59.1c0,32.6,26.5,59.1,59.1,59.1c32.6,0,59.1-26.5,59.1-59.1
	C482.8,55.7,456.3,29.2,423.7,29.2z"/>
<path class="st0" d="M444.4,72c0,11.4-9.3,20.7-20.7,20.7S403,83.5,403,72s9.2-20.7,20.7-20.7S444.4,60.6,444.4,72z"/>
<path class="st1" d="M423.7,96.7c-13.6,0-24.7-11.1-24.7-24.7s11.1-24.7,24.7-24.7c13.6,0,24.7,11.1,24.7,24.7
	S437.3,96.7,423.7,96.7z M423.7,55.4c-9.2,0-16.7,7.5-16.7,16.7c0,9.2,7.5,16.7,16.7,16.7c9.2,0,16.7-7.5,16.7-16.7
	S432.9,55.4,423.7,55.4z"/>
<path class="st2" d="M454.8,121.9c-1-16.3-14.6-29.2-31.1-29.2c-16.6,0-30.1,12.9-31.1,29.2H454.8z"/>
<path class="st1" d="M454.8,125.9h-62.2c-1.1,0-2.2-0.5-2.9-1.3c-0.8-0.8-1.1-1.9-1.1-3c1.2-18.5,16.6-32.9,35.1-32.9
	s33.9,14.5,35.1,32.9c0.1,1.1-0.3,2.2-1.1,3C457,125.5,455.9,125.9,454.8,125.9z M397.2,117.9h53c-2.8-12.2-13.7-21.2-26.5-21.2
	S399.9,105.7,397.2,117.9z"/>
<path class="st0" d="M65.6,110c0,24.5,19.9,44.4,44.4,44.4c24.5,0,44.4-19.9,44.4-44.4S134.6,65.6,110,65.6
	C85.5,65.6,65.6,85.5,65.6,110z"/>
<path class="st1" d="M110,158.5c-26.7,0-48.4-21.7-48.4-48.4S83.3,61.6,110,61.6c26.7,0,48.4,21.7,48.4,48.4S136.7,158.5,110,158.5z
	 M110,69.6c-22.3,0-40.4,18.1-40.4,40.4s18.1,40.4,40.4,40.4c22.3,0,40.4-18.1,40.4-40.4S132.3,69.6,110,69.6L110,69.6z"/>
<path class="st0" d="M124.6,98.6c0,8-6.5,14.6-14.6,14.6s-14.6-6.5-14.6-14.6S102,84,110,84S124.6,90.5,124.6,98.6z"/>
<path class="st1" d="M110,117.2c-10.2,0-18.6-8.3-18.6-18.6S99.8,80,110,80c10.2,0,18.6,8.3,18.6,18.6S120.3,117.2,110,117.2z
	 M110,88c-5.8,0-10.6,4.7-10.6,10.6c0,5.8,4.7,10.6,10.6,10.6c5.8,0,10.6-4.7,10.6-10.6C120.6,92.8,115.9,88,110,88z"/>
<path class="st0" d="M131.9,133.7c-0.7-11.5-10.3-20.6-21.9-20.6c-11.7,0-21.2,9.1-21.9,20.6H131.9z"/>
<path class="st1" d="M131.9,137.7H88.1c-1.1,0-2.2-0.5-2.9-1.3s-1.1-1.9-1.1-3c0.9-13.6,12.3-24.3,25.9-24.3s25,10.7,25.9,24.3
	c0.1,1.1-0.3,2.2-1.1,3S133,137.7,131.9,137.7z M92.9,129.7h34.2c-2.3-7.3-9.2-12.6-17.1-12.6S95.2,122.4,92.9,129.7z"/>
<path class="st0" d="M357.7,402.2c0,24.5,19.9,44.4,44.4,44.4c24.5,0,44.4-19.9,44.4-44.4s-19.9-44.4-44.4-44.4
	C377.6,357.7,357.7,377.6,357.7,402.2z"/>
<path class="st1" d="M402.2,450.6c-26.7,0-48.4-21.7-48.4-48.4s21.7-48.4,48.4-48.4c26.7,0,48.4,21.7,48.4,48.4
	C450.6,428.9,428.9,450.6,402.2,450.6z M402.2,361.7c-22.3,0-40.4,18.1-40.4,40.4s18.1,40.4,40.4,40.4s40.4-18.1,40.4-40.4
	C442.6,379.9,424.5,361.7,402.2,361.7z"/>
<path class="st0" d="M416.7,390.7c0,8-6.5,14.6-14.6,14.6c-8,0-14.5-6.5-14.5-14.6c0-8,6.5-14.6,14.5-14.6S416.7,382.7,416.7,390.7z
	"/>
<path class="st1" d="M402.2,409.3c-10.2,0-18.5-8.3-18.5-18.6s8.3-18.6,18.5-18.6c10.2,0,18.6,8.3,18.6,18.6
	S412.4,409.3,402.2,409.3z M402.2,380.2c-5.8,0-10.5,4.7-10.5,10.6c0,5.8,4.7,10.6,10.5,10.6c5.8,0,10.6-4.7,10.6-10.6
	C412.7,384.9,408,380.2,402.2,380.2z"/>
<path class="st0" d="M424.1,425.8c-0.7-11.5-10.2-20.6-21.9-20.6c-11.7,0-21.2,9.1-21.9,20.6H424.1z"/>
<path class="st1" d="M424.1,429.8h-43.8c-1.1,0-2.2-0.5-2.9-1.3c-0.8-0.8-1.1-1.9-1.1-3c0.9-13.6,12.2-24.3,25.9-24.3
	s25,10.7,25.9,24.3c0.1,1.1-0.3,2.2-1.1,3C426.2,429.4,425.2,429.8,424.1,429.8L424.1,429.8z M385,421.8h34.2
	c-2.3-7.3-9.2-12.6-17.1-12.6S387.3,414.5,385,421.8z"/>
</svg>
