<?xml version="1.0" encoding="utf-8"?>
<!-- Generator: Adobe Illustrator 23.0.3, SVG Export Plug-In . SVG Version: 6.00 Build 0)  -->
<svg version="1.1" id="Layer_1" xmlns="http://www.w3.org/2000/svg" xmlns:xlink="http://www.w3.org/1999/xlink" x="0px" y="0px"
	 viewBox="0 0 512 512" style="enable-background:new 0 0 512 512;" xml:space="preserve">
<style type="text/css">
	.st0{fill:#4798E8;}
</style>
<path class="st0" d="M470.1,222.9l-9.3-1.4c-0.4-5.6-4.7-10.4-10.6-11.3l-12.5-1.9c-0.6-0.1-1.2-0.1-1.9-0.1
	c-4.3,0-8.1,2.2-10.4,5.6l-56.6-8.6l-15.6-21.2c-1.9-21.7-20.3-38.8-42.5-38.8h-4.4c7.8-7.5,13.4-17.1,16-27.9h0.7
	c10.6,0,19.2-8.6,19.2-19.1V88c0-6-2.8-11.4-7.2-14.9V34.4c0-18.9-15.5-34.4-34.6-34.4h-92.1c-6.6,0-12,5.4-12,12v61.2
	c-4.4,3.5-7.2,8.9-7.2,14.9v10.1c0,10.5,8.6,19.1,19.2,19.1h0.7c2.3,9.6,7.1,18.3,13.6,25.4v2.5h-2c-22.3,0-40.6,17.1-42.5,38.8
	l-15.6,21.2l-56.6,8.6c-2.3-3.4-6.1-5.6-10.4-5.6c-0.6,0-1.3,0-1.9,0.1l-12.5,1.9c-5.9,0.9-10.2,5.7-10.6,11.3l-9.3,1.4
	c-3.3,0.5-6.2,2.3-8.2,4.9c-2,2.7-2.8,6-2.3,9.3L53,254c0.9,6.1,6.2,10.6,12.4,10.6c0.6,0,1.3,0,1.9-0.1l28.2-4.3l77.1-11.7l0.6-0.1
	c1.5-0.4,3.1-0.8,4.7-1.4v12.1h-34.5c-6.9,0-12.5,5.6-12.5,12.5v41.7c0,6.9,5.6,12.5,12.5,12.5h18.7V497h-19.4
	c-4.1,0-7.5,3.4-7.5,7.5s3.4,7.5,7.5,7.5h246c4.1,0,7.5-3.4,7.5-7.5s-3.4-7.5-7.5-7.5h-19.4v-16c0-4.1-3.4-7.5-7.5-7.5
	c-4.1,0-7.5,3.4-7.5,7.5v16H176.9V325.8h123.5c4.1,0,7.5-3.4,7.5-7.5c0-4.1-3.4-7.5-7.5-7.5H145.7v-36.7h239.6v36.7h-46.9
	c-4.1,0-7.5,3.4-7.5,7.5c0,4.1,3.4,7.5,7.5,7.5h15.7V445c0,4.1,3.4,7.5,7.5,7.5c4.1,0,7.5-3.4,7.5-7.5V325.8h18.7
	c6.9,0,12.5-5.6,12.5-12.5v-41.7c0-6.9-5.6-12.5-12.5-12.5h-34.5V247c1.6,0.6,3.1,1.1,4.7,1.4l71.9,10.9c0,0,0,0,0,0l4.5,0.7
	l1.2,0.2l28.2,4.3c0.6,0.1,1.2,0.1,1.9,0.1c6.1,0,11.4-4.6,12.4-10.6l2.6-16.9C481.6,230.3,476.9,223.9,470.1,222.9z M327.1,98.1
	c0,2-1.4,3.6-3.4,4V84c1.9,0.4,3.4,2,3.4,4V98.1z M203.9,98.1V88c0-2,1.4-3.6,3.4-4v18.1C205.4,101.8,203.9,100.1,203.9,98.1z
	 M211.1,40.2V15h89.1c10.8,0,19.6,8.7,19.6,19.4v5.8c-1.8-1.4-4-2.3-6.5-2.3h-95.8C215.1,37.9,212.9,38.8,211.1,40.2z M222.3,103.8
	V52.9h86.4v50.9c0,23.6-19.4,42.7-43.2,42.7C241.7,146.5,222.3,127.4,222.3,103.8z M291.1,155.7v8l-7.2-5.1
	C286.4,157.8,288.8,156.8,291.1,155.7z M245.4,158l-8,5.7v-9.3C240,155.8,242.7,157,245.4,158z M65.6,237.3l9-1.4
	c5.9-0.9,10.2-5.7,10.6-11.3l7.9-1.2l3.3,21.5l-29,4.4L65.6,237.3z M169.9,233.8l-58.7,8.9l-2.2-14.3l56.7-8.6l0.6-0.1l0.6-0.2
	c2.1-0.7,4.9-2.5,6.4-4.2l0.2-0.3l4.1-5.6v20.9C175.2,231.9,172.5,233.2,169.9,233.8z M237,259.2v-36.7c0-5.8,3.6-10.7,8.4-12.1
	c3.2,8.8,11.7,15.1,21.6,15.1c12.7,0,23-10.3,23-23s-10.3-23-23-23c-10.1,0-18.7,6.6-21.8,15.7c-13,1.6-23.2,13.2-23.2,27.3v36.7
	h-29.3v-71.4c0-15.2,12.4-27.6,27.7-27.6h2v13.2c0,5.9,4.1,10.4,9.5,10.4c2.2,0,4.4-0.8,6.4-2.2l25.9-18.5l25.9,18.5
	c2,1.4,4.2,2.2,6.4,2.2c5.4,0,9.5-4.5,9.5-10.4v-13.2h4.5c15.3,0,27.7,12.4,27.7,27.6v71.4H237z M259,202.5c0-4.4,3.6-8,8-8
	s8,3.6,8,8s-3.6,8-8,8S259,206.9,259,202.5z M353.3,230.3v-20.9l3.9,5.3l0.5,0.6c1.5,1.6,4.3,3.5,6.3,4.2l0.6,0.2l57.4,8.7
	l-2.2,14.3l-58.7-8.9C358.5,233.2,355.8,231.9,353.3,230.3z M463.6,249.3l-29-4.4l3.3-21.5l7.9,1.2c0.4,5.6,4.7,10.4,10.6,11.3
	l9,1.4L463.6,249.3z"/>
<path class="st0" d="M265.5,100.5h4.8c4.1,0,7.5-3.4,7.5-7.5s-3.4-7.5-7.5-7.5h-2v-9.2c0-4.1-3.4-7.5-7.5-7.5
	c-4.1,0-7.5,3.4-7.5,7.5V88C253.2,94.9,258.7,100.5,265.5,100.5z"/>
<path class="st0" d="M247.6,85.2V74c0-4.1-3.4-7.5-7.5-7.5c-4.1,0-7.5,3.4-7.5,7.5v11.2c0,4.1,3.4,7.5,7.5,7.5
	C244.2,92.7,247.6,89.3,247.6,85.2z"/>
<path class="st0" d="M290.9,92.7c4.1,0,7.5-3.4,7.5-7.5V74c0-4.1-3.4-7.5-7.5-7.5c-4.1,0-7.5,3.4-7.5,7.5v11.2
	C283.4,89.3,286.8,92.7,290.9,92.7z"/>
<path class="st0" d="M237.5,114.6c0,14.8,12,26.8,26.8,26.8c14.8,0,26.8-12,26.8-26.8c0-6.1-5-11.1-11.1-11.1h-31.4
	C242.4,103.5,237.5,108.5,237.5,114.6z M275.4,118.5c-1.6,4.6-6,7.9-11.1,7.9c-5.1,0-9.5-3.3-11.1-7.9H275.4z"/>
<path class="st0" d="M121.9,96.4c0-4.1-3.4-7.5-7.5-7.5H47V23.5h115.4v17.6c0,5.4,3.4,11.3,8.1,14l3.6,2.1l-3.6,2.1
	c-4.7,2.7-8.1,8.6-8.1,14v15.6h-12c-4.1,0-7.5,3.4-7.5,7.5s3.4,7.5,7.5,7.5h14.5c6.9,0,12.5-5.6,12.5-12.5v-18
	c0.1-0.3,0.4-0.9,0.7-1.2l10.4-6c3.5-2,5.5-5.4,5.5-9c0-3.6-2.1-7-5.5-9l-10.4-6c-0.3-0.2-0.6-0.8-0.7-1.2V21
	c0-6.9-5.6-12.5-12.5-12.5H44.5C37.6,8.5,32,14.1,32,21v70.4c0,6.9,5.6,12.5,12.5,12.5h69.9C118.5,103.9,121.9,100.5,121.9,96.4z"/>
<path class="st0" d="M62.8,44.5h81.7c4.1,0,7.5-3.4,7.5-7.5s-3.4-7.5-7.5-7.5H62.8c-4.1,0-7.5,3.4-7.5,7.5S58.7,44.5,62.8,44.5z"/>
<path class="st0" d="M152,56c0-4.1-3.4-7.5-7.5-7.5H62.8c-4.1,0-7.5,3.4-7.5,7.5s3.4,7.5,7.5,7.5h81.7C148.6,63.5,152,60.1,152,56z"
	/>
<path class="st0" d="M62.8,67.5c-4.1,0-7.5,3.4-7.5,7.5s3.4,7.5,7.5,7.5h46.8c4.1,0,7.5-3.4,7.5-7.5s-3.4-7.5-7.5-7.5H62.8z"/>
<path class="st0" d="M297.5,350.5c-9.6,0-18.6,3.7-25.3,10.5l-6.6,6.6l-6.6-6.6c-6.8-6.7-15.8-10.5-25.3-10.5
	c-9.6,0-18.6,3.7-25.3,10.5c-6.8,6.7-10.5,15.7-10.5,25.3c0,9.6,3.7,18.5,10.5,25.3l48,47.8c2.5,2.5,5.8,3.9,9.3,3.9
	c3.5,0,6.9-1.4,9.3-3.9l48-47.8c6.8-6.7,10.5-15.7,10.5-25.3c0-9.6-3.7-18.5-10.5-25.3C316,354.2,307,350.5,297.5,350.5z
	 M312.2,400.9l-46.7,46.5l-46.7-46.5c-3.9-3.9-6.1-9.1-6.1-14.6s2.2-10.7,6.1-14.6c3.9-3.9,9.2-6.1,14.7-6.1
	c5.6,0,10.8,2.2,14.7,6.1l11.9,11.9c2.9,2.9,7.7,2.9,10.6,0l11.9-11.9c3.9-3.9,9.2-6.1,14.7-6.1s10.8,2.2,14.7,6.1
	c3.9,3.9,6.1,9.1,6.1,14.6C318.3,391.8,316.1,397,312.2,400.9z"/>
<path class="st0" d="M249.8,397.2v-9.5c0-4.1-3.4-7.5-7.5-7.5c-4.1,0-7.5,3.4-7.5,7.5v9.5c0,4.1,3.4,7.5,7.5,7.5
	C246.5,404.7,249.8,401.3,249.8,397.2z"/>
<path class="st0" d="M288.7,380.2c-4.1,0-7.5,3.4-7.5,7.5v9.5c0,4.1,3.4,7.5,7.5,7.5c4.1,0,7.5-3.4,7.5-7.5v-9.5
	C296.2,383.5,292.8,380.2,288.7,380.2z"/>
<path class="st0" d="M276.4,405.8c-4.1,0-7.5,3.4-7.5,7.5c0,1.9-1.5,3.4-3.4,3.4s-3.4-1.5-3.4-3.4c0-4.1-3.4-7.5-7.5-7.5
	c-4.1,0-7.5,3.4-7.5,7.5c0,10.1,8.3,18.4,18.4,18.4s18.4-8.2,18.4-18.4C283.9,409.2,280.6,405.8,276.4,405.8z"/>
</svg>
