<?xml version="1.0" encoding="utf-8"?>
<!-- Generator: Adobe Illustrator 23.0.3, SVG Export Plug-In . SVG Version: 6.00 Build 0)  -->
<svg version="1.1" id="Layer_1" xmlns="http://www.w3.org/2000/svg" xmlns:xlink="http://www.w3.org/1999/xlink" x="0px" y="0px"
	 viewBox="0 0 512 512" style="enable-background:new 0 0 512 512;" xml:space="preserve">
<style type="text/css">
	.st0{fill:#4798E8;}
</style>
<path class="st0" d="M494.9,42.7H324.3V25.6c0-14.1-11.5-25.6-25.6-25.6h-85.3c-14.1,0-25.6,11.5-25.6,25.6v17.1H17.1
	C7.6,42.7,0,50.3,0,59.7v17.1c0,9.4,7.6,17.1,17.1,17.1v315.7c0,4.7,3.8,8.5,8.5,8.5H35c4.7,0,8.5-3.8,8.5-8.5
	c0-4.7-3.8-8.5-8.5-8.5h-0.9V93.9h443.7v307.2H203.9c-4.7,0-8.5,3.8-8.5,8.5c0,4.7,3.8,8.5,8.5,8.5h291v17.1h-330
	c-0.1,0-0.2,0.1-0.3,0.1c-0.6,0.1-1.3,0.2-1.9,0.4c-0.5,0.1-0.9,0.2-1.4,0.4c-0.5,0.3-1,0.6-1.4,0.9c-0.4,0.3-0.9,0.6-1.2,1
	c-0.3,0.4-0.6,0.8-0.9,1.3c-0.3,0.5-0.6,1-0.9,1.5c0,0.1-0.1,0.2-0.2,0.3L137,500.8c-0.7,2.1-0.5,4.5,0.5,6.5c1,2,2.8,3.6,4.9,4.3
	c0.9,0.3,1.8,0.4,2.7,0.4c3.7,0,6.9-2.4,8.1-5.8l17.9-53.9h76.8l-0.4,51.1c0,4.7,3.8,8.6,8.5,8.6h0.1c4.7,0,8.5-3.8,8.5-8.5
	l0.4-51.3h75.9l17.9,53.9c1.2,3.5,4.4,5.8,8.1,5.8c0.9,0,1.8-0.1,2.7-0.4c2.1-0.7,3.9-2.3,4.9-4.3c1-2,1.2-4.4,0.5-6.5l-16.1-48.5
	h136c9.4,0,17.1-7.6,17.1-17.1v-17.1c0-9.4-7.6-17.1-17.1-17.1V93.9c9.4,0,17.1-7.6,17.1-17.1V59.7C512,50.3,504.4,42.7,494.9,42.7z
	 M204.8,25.6c0-4.7,3.8-8.5,8.5-8.5h85.3c4.7,0,8.5,3.8,8.5,8.5v17.1H204.8V25.6z M486.4,76.8H17.1V59.7h477.9v17.1H486.4z"/>
<path class="st0" d="M68.3,204.8h93.9c9.4,0,17.1-7.6,17.1-17.1V128c0-9.4-7.6-17.1-17.1-17.1H68.3c-9.4,0-17.1,7.6-17.1,17.1v59.7
	C51.2,197.2,58.8,204.8,68.3,204.8z M86,187.7l16.4-20.5l16.4,20.5H86z M162.1,144.3c-4.6,1.7-9.8,0.5-13.3-3
	c-3.5-3.5-4.6-8.7-3-13.3h16.3V144.3z M128.4,128c-1.4,9.3,1.6,18.8,8.3,25.5s16.1,9.8,25.5,8.3v25.9h-21.5l-31.6-39.5
	c-1.7-1.9-4.1-3-6.7-3s-5,1.1-6.7,3l-27.5,34.3V128H128.4z"/>
<path class="st0" d="M213.3,204.8h93.9c9.4,0,17.1-7.6,17.1-17.1V128c0-5.3-2.5-10.3-6.8-13.5c-0.1-0.1-0.1-0.1-0.2-0.2
	c-2.9-2.2-6.4-3.3-10.1-3.4h-93.9c-3.6,0-7.2,1.2-10.1,3.4c-0.1,0.1-0.2,0.2-0.3,0.2c-4.2,3.2-6.7,8.2-6.7,13.5v59.7
	C196.3,197.2,203.9,204.8,213.3,204.8z M307.2,180l-31.9-22.1l31.9-22.1V180z M288.4,187.7h-56.3l28.2-19.5L288.4,187.7z
	 M260.3,147.5L232.1,128h56.3L260.3,147.5z M245.3,157.9L213.3,180v-44.3L245.3,157.9z"/>
<path class="st0" d="M358.4,204.8h93.9c9.4,0,17.1-7.6,17.1-17.1V128c0-9.4-7.6-17.1-17.1-17.1h-93.9c-9.4,0-17.1,7.6-17.1,17.1
	v59.7C341.3,197.2,349,204.8,358.4,204.8z M418.1,140.8c0,7.1-5.7,12.8-12.8,12.8c-7.1,0-12.8-5.7-12.8-12.8s5.7-12.8,12.8-12.8
	C412.4,128,418.1,133.7,418.1,140.8z M358.4,128h20.1c-1.9,4-3,8.4-3,12.8c0,16.5,13.4,29.9,29.9,29.9c16.5,0,29.9-13.4,29.9-29.9
	c0-4.4-1-8.8-3-12.8h20.1v59.7h-93.9V128z"/>
<path class="st0" d="M51.2,332.8c0,9.4,7.6,17.1,17.1,17.1h35c4.7,0,8.5-3.8,8.5-8.5c0-4.7-3.8-8.5-8.5-8.5h-35v-59.7h93.9v27
	c0,4.7,3.8,8.5,8.5,8.5c4.7,0,8.5-3.8,8.5-8.5v-27c0-9.4-7.6-17.1-17.1-17.1H68.3c-9.4,0-17.1,7.6-17.1,17.1V332.8z"/>
<path class="st0" d="M196.3,286.5c0,4.7,3.8,8.5,8.5,8.5c4.7,0,8.5-3.8,8.5-8.5v-5.7l32,22.1l-2.4,1.7c-3.7,2.7-4.5,7.9-1.9,11.7
	c2.6,3.8,7.8,4.8,11.6,2.3l7.7-5.3l28.2,19.5h-52.6c-4.7,0-8.5,3.8-8.5,8.5c0,4.7,3.8,8.5,8.5,8.5h71.3c9.4,0,17.1-7.6,17.1-17.1
	v-59.7c-0.1-4.2-1.7-8.2-4.5-11.3l-0.1-0.1c-0.5-0.6-1-1.1-1.5-1.6c-0.2-0.2-0.5-0.4-0.8-0.6l-0.2-0.1c-2.9-2.2-6.4-3.3-10-3.4
	h-93.9c-3.6,0-7.1,1.2-9.9,3.3c-0.2,0.1-0.3,0.2-0.4,0.3c-0.3,0.2-0.6,0.4-0.9,0.6c-3.7,3.3-5.8,7.9-5.8,12.8V286.5z M232.1,273.1
	h56.3l-28.2,19.5L232.1,273.1z M307.2,280.8v44.2l-31.9-22.1L307.2,280.8z"/>
<path class="st0" d="M341.3,332.8c0,9.4,7.6,17.1,17.1,17.1h93.9c9.4,0,17.1-7.6,17.1-17.1v-59.7c0-9.4-7.6-17.1-17.1-17.1h-93.9
	c-9.4,0-17.1,7.6-17.1,17.1V332.8z M376.2,332.8l16.4-20.5l16.4,20.5H376.2z M452.3,289.4c-4.6,1.7-9.8,0.5-13.3-3
	c-3.5-3.5-4.6-8.7-3-13.3h16.3V289.4z M418.5,273.1c-1.4,9.3,1.6,18.8,8.3,25.5s16.1,9.8,25.5,8.3v25.9h-21.5l-31.6-39.5
	c-1.7-1.9-4.1-3-6.7-3c-2.6,0-5,1.1-6.7,3l-27.5,34.3v-54.6H418.5z"/>
<path class="st0" d="M59.7,238.9h110.9c4.7,0,8.5-3.8,8.5-8.5c0-4.7-3.8-8.5-8.5-8.5H59.7c-4.7,0-8.5,3.8-8.5,8.5
	C51.2,235.1,55,238.9,59.7,238.9z"/>
<path class="st0" d="M59.7,384h9.4c4.7,0,8.5-3.8,8.5-8.5c0-4.7-3.8-8.5-8.5-8.5h-9.4c-4.7,0-8.5,3.8-8.5,8.5
	C51.2,380.2,55,384,59.7,384z"/>
<path class="st0" d="M222.2,366.9c-4.7,0-8.5,3.8-8.5,8.5c0,4.7,3.8,8.5,8.5,8.5h93.5c4.7,0,8.5-3.8,8.5-8.5c0-4.7-3.8-8.5-8.5-8.5
	H222.2z"/>
<path class="st0" d="M349.9,384h110.9c4.7,0,8.5-3.8,8.5-8.5c0-4.7-3.8-8.5-8.5-8.5H349.9c-4.7,0-8.5,3.8-8.5,8.5
	C341.3,380.2,345.2,384,349.9,384z"/>
<path class="st0" d="M204.8,238.9h110.9c4.7,0,8.5-3.8,8.5-8.5c0-4.7-3.8-8.5-8.5-8.5H204.8c-4.7,0-8.5,3.8-8.5,8.5
	C196.3,235.1,200.1,238.9,204.8,238.9z"/>
<path class="st0" d="M349.9,238.9h110.9c4.7,0,8.5-3.8,8.5-8.5c0-4.7-3.8-8.5-8.5-8.5H349.9c-4.7,0-8.5,3.8-8.5,8.5
	C341.3,235.1,345.2,238.9,349.9,238.9z"/>
<path class="st0" d="M43.7,437.1l-18.1,18.1c-6.7,6.7-6.7,17.5,0,24.1l24.1,24.1c3.2,3.2,7.5,5,12.1,5c4.5,0,8.9-1.8,12.1-5
	l114.6-114.6v-0.1c0.6-0.6,1.1-1.3,1.5-2l26.9-51.6c3.5-6.6,2.2-14.7-3-20s-13.4-6.5-20-3L142.3,339c-0.3,0.2-0.7,0.5-1,0.8
	c-0.4,0.2-0.8,0.5-1.1,0.7L43.7,437.1L43.7,437.1z M61.8,491.4l-24.1-24.2l12.1-12.1l24.2,24.1L61.8,491.4z M85.9,467.3l-24.1-24.1
	l84.5-84.5l24.1,24.1L85.9,467.3z M201.8,327.3l-21.5,41.2l-19.8-19.8L201.8,327.3z"/>
</svg>
