<?xml version="1.0" encoding="utf-8"?>
<!-- Generator: Adobe Illustrator 23.0.3, SVG Export Plug-In . SVG Version: 6.00 Build 0)  -->
<svg version="1.1" id="Layer_1" xmlns="http://www.w3.org/2000/svg" xmlns:xlink="http://www.w3.org/1999/xlink" x="0px" y="0px"
	 viewBox="0 0 358 358" style="enable-background:new 0 0 358 358;" xml:space="preserve">
<style type="text/css">
	.st0{fill:#4798E8;}
</style>
<path class="st0" d="M325.5,126.2h-3.9c-0.6-2.5-1.4-4.9-2.4-7.2l-7.5-29.8c-10.2-40.4-45.6-68.7-86.1-68.7h-22.2l-1.2-14.2
	c-0.3-3.5-3.2-6.3-6.8-6.3h-32.2c-3.6,0-6.5,2.7-6.8,6.3l-1.2,14.2h-22.2c-40.5,0-75.9,28.2-86.1,68.7l-7.5,29.8
	c-1,2.3-1.8,4.7-2.4,7.2h-3.9c-11.6,0-21,9.4-21,21v19.4c0,11.6,9.4,21,21,21h3c0.7,15.4,10.3,28.6,23.8,34.4v13.4
	c0,67.7,55.1,122.7,122.7,122.7c67.7,0,122.7-55.1,122.7-122.7v-17.1c9.8-6.8,16.4-17.9,17-30.6h3c11.6,0,21-9.4,21-21v-19.4
	C346.5,135.6,337.1,126.2,325.5,126.2z M225.7,34.1c34.3,0,64.2,24,72.9,58.3l1.7,6.9c-4.1-1.9-8.5-3.2-13.2-3.7
	c-18.3-29.5-48.1-49.9-82.1-56.1l-0.4-5.4H225.7z M209.6,95.5l-3.4-41.7c25.8,5.6,48.7,20.4,64.4,41.7H209.6z M189.3,13.6l6.6,81.8
	H163l6.6-81.8H189.3z M95.2,95.5c14.2-19.2,34.5-33.3,57.4-39.9l-3.2,39.9H95.2z M133.2,34.1h21.1l-0.6,7
	c-30.9,7.6-58.1,27.2-75.1,54.4h-3.2c-6,0-11.8,1.4-16.9,3.9l1.7-6.9C69,58.1,98.9,34.1,133.2,34.1z M26,166.5v-19.4
	c0-4,3.3-7.3,7.3-7.3h2.9v34.1h-2.9C29.3,173.9,26,170.6,26,166.5z M292,235.3c0,60.2-48.9,109.1-109.1,109.1S73.8,295.4,73.8,235.3
	v-10.3c0.6,0,1.1,0.1,1.7,0.1h80.1c-0.1,0.3-0.2,0.6-0.2,1l-0.7,5.9c-0.8,6.9,1.3,13.8,5.9,19c4.6,5.2,11.2,8.2,18.2,8.2h1.4
	c7,0,13.6-3,18.2-8.2c4.6-5.2,6.8-12.1,5.9-19l-0.7-5.9c0-0.3-0.2-0.6-0.2-1h80.1c2.9,0,5.8-0.3,8.5-1V235.3z M189.3,225
	c0.3,0.8,0.7,1.7,0.8,2.6l0.7,5.9c0.4,3.1-0.6,6.1-2.6,8.4c-2.1,2.3-4.9,3.6-8,3.6h-1.4c-3.1,0-5.9-1.3-8-3.6
	c-2.1-2.3-3-5.3-2.6-8.4l0.7-5.9c0.1-0.9,0.5-1.8,0.8-2.6H189.3z M309,185.8c0,14.1-11.5,25.5-25.5,25.5h-208
	c-14.1,0-25.5-11.5-25.5-25.5v-51.2c0-0.5,0.1-0.9,0.1-1.4l2.4-9.5c4.1-8.6,12.8-14.7,23-14.7h208c10.2,0,18.9,6,23,14.7l2.4,9.5
	c0,0.5,0.1,0.9,0.1,1.4V185.8z M332.9,166.5c0,4-3.3,7.3-7.3,7.3h-2.9v-34.1h2.9c4,0,7.3,3.3,7.3,7.3V166.5z"/>
<path class="st0" d="M147.4,152l-27.3,27.3c-2.7,2.7-2.7,7,0,9.6c1.3,1.3,3.1,2,4.8,2c1.7,0,3.5-0.7,4.8-2l27.3-27.3
	c2.7-2.7,2.7-7,0-9.6C154.3,149.4,150,149.4,147.4,152z"/>
<path class="st0" d="M215.5,124.7l-47.7,47.7c-2.7,2.7-2.7,7,0,9.6c1.3,1.3,3.1,2,4.8,2s3.5-0.7,4.8-2l47.7-47.7
	c2.7-2.7,2.7-7,0-9.6C222.5,122.1,218.2,122.1,215.5,124.7z"/>
<path class="st0" d="M193.1,279.6h-27.3c-3.8,0-6.8,3.1-6.8,6.8c0,3.8,3.1,6.8,6.8,6.8h27.3c3.8,0,6.8-3.1,6.8-6.8
	C199.9,282.6,196.9,279.6,193.1,279.6z"/>
<path class="st0" d="M84,133c0,5.6-4.6,10.2-10.2,10.2c-5.6,0-10.2-4.6-10.2-10.2c0-5.6,4.6-10.2,10.2-10.2
	C79.4,122.7,84,127.3,84,133z"/>
<path class="st0" d="M118.1,133c0,5.6-4.6,10.2-10.2,10.2c-5.6,0-10.2-4.6-10.2-10.2c0-5.6,4.6-10.2,10.2-10.2
	C113.5,122.7,118.1,127.3,118.1,133z"/>
</svg>
