<?xml version="1.0" encoding="utf-8"?>
<!-- Generator: Adobe Illustrator 16.0.3, SVG Export Plug-In . SVG Version: 6.00 Build 0)  -->
<!DOCTYPE svg PUBLIC "-//W3C//DTD SVG 1.1//EN" "http://www.w3.org/Graphics/SVG/1.1/DTD/svg11.dtd">
<svg version="1.1" xmlns="http://www.w3.org/2000/svg" xmlns:xlink="http://www.w3.org/1999/xlink" x="0px" y="0px" width="336px"
	 height="262.956px" viewBox="0 0 336 262.956" enable-background="new 0 0 336 262.956" xml:space="preserve">
<g id="Guides" display="none">
</g>
<g id="Grids" display="none">
</g>
<g id="Content">
	<rect x="29.3" y="229.217" fill="none" width="300.601" height="350"/>
	<g>
		<path fill="#415071" d="M10.541,209.53c2.908-29.125,24.193-49.508,41.69-70.813C67.604,119.995,162.629,59.036,191,44.717
			c25.652-12.946,115.633-24.759,115.399-2.736c-0.247,23.185-33.138,33.322-40.792,50.177c8.445,2.458,51.542-9.634,61.357-6.417
			c6.643,10.246,4.064,38.147-19.569,58.064c-35.621,30.02-102.594,52.617-116.896,55.912
			c-26.646,6.14-135.113,19.992-162.765,14.688c-4.284-0.821-10.415-2.341-14.11-3.231L10.541,209.53z"/>
		<path fill="#E5B7C6" d="M49.808,141.451c5.417,3.009,12.141,12.536,14.319,18.286c2.734,7.211,4.973,13.116,7.6,20.036
			c2.865,7.541,3.51,14.719,3.848,22.337c0.144,3.281-0.181,9.37,0.038,12.257c-6.005,0.419-15.575,1.224-21.8,1.224
			c-5.375,0-7.625,0.305-11.318,0.223c-5.917-0.131-11.092-0.482-17.181-1.556c-3.179-0.561-6.438-1.354-9.644-2.445
			c-4.035-1.374-7.283-1.473-6.057-5.891c1.244-4.482,2.889-7.631,3.729-10.205c0.947-2.897,1.876-5.16,3.008-7.797
			c4.463-10.391,10.15-18.016,16.217-25.763c2.862-3.655,6.76-8.124,9.701-11.813c1.162-1.46,3.082-3.629,4.619-5.453
			c1.766-2.095,0.333-0.063,1.766-2.095"/>
	</g>
</g>
</svg>
